<svg xmlns="http://www.w3.org/2000/svg" version="1.1" xmlns:xlink="http://www.w3.org/1999/xlink" xmlns:svgjs="http://svgjs.dev/svgjs" width="1440" height="560" preserveAspectRatio="none" viewBox="0 0 1440 560">
    <g mask="url(&quot;#SvgjsMask1001&quot;)" fill="none">
        <rect width="1440" height="560" x="0" y="0" fill="rgba(24, 106, 59, 1)"></rect>
        <path d="M0,445.668C93.543,462.658,205.049,493.951,279.218,434.471C354.293,374.265,335.915,256.209,354.089,161.707C367.979,89.479,379.287,19.647,373.086,-53.642C366.542,-130.984,359.228,-209.591,317.156,-274.817C271.459,-345.664,210.043,-417.031,127.532,-434.335C46.039,-451.425,-24.988,-379.217,-106.8,-363.726C-201.4,-345.814,-309.485,-391.657,-388.491,-336.629C-470.424,-279.562,-507.862,-173.892,-521.384,-74.964C-534.857,23.603,-521.452,130.829,-463.432,211.642C-408.633,287.969,-304.719,301.288,-220.846,343.643C-146.965,380.952,-81.435,430.877,0,445.668" fill="#13552f">
            <animateTransform attributeName="transform" attributeType="XML" type="rotate" values="0;30;0" keyTimes="0;0.5;1" dur="90s" repeatCount="indefinite"/>
        </path>
        <path d="M1440 1074.809C1557.925 1086.816 1675.493 1139.5839999999998 1787.446 1100.636 1910.737 1057.743 2017.51 966.902 2079.848 852.2090000000001 2144.216 733.781 2164.767 591.5889999999999 2135.656 459.98 2107.5190000000002 332.777 2028.2269999999999 218.13099999999997 1922.695 141.74200000000002 1827.392 72.757 1698.414 97.447 1586.159 62.22800000000001 1470.929 26.076000000000022 1375.985-78.82000000000005 1255.748-67.50400000000002 1129.645-55.63599999999997 995.804 11.674999999999955 936.139 123.40199999999999 877.18 233.80700000000002 967.832 365.903 957.677 490.652 948.446 604.047 844.446 707.701 879.772 815.848 915.276 924.539 1031.442 986.249 1135.233 1034.226 1230.184 1078.116 1335.934 1064.213 1440 1074.809" fill="#1d7f47">
            <animateTransform attributeName="transform" attributeType="XML" type="rotate" values="0;-30;0" keyTimes="0;0.5;1" dur="90s" repeatCount="indefinite"/>
        </path>
    </g>
    <defs>
        <mask id="SvgjsMask1001">
            <rect width="1440" height="560" fill="#ffffff"></rect>
        </mask>
    </defs>
</svg>