<svg xmlns="http://www.w3.org/2000/svg" viewBox="0 0 1440 320"><path fill="#0099ff" fill-opacity="1" d="M0,192L20,208C40,224,80,256,120,261.3C160,267,200,245,240,245.3C280,245,320,267,360,277.3C400,288,440,288,480,256C520,224,560,160,600,144C640,128,680,160,720,192C760,224,800,256,840,250.7C880,245,920,203,960,176C1000,149,1040,139,1080,144C1120,149,1160,171,1200,202.7C1240,235,1280,277,1320,261.3C1360,245,1400,171,1420,133.3L1440,96L1440,320L1420,320C1400,320,1360,320,1320,320C1280,320,1240,320,1200,320C1160,320,1120,320,1080,320C1040,320,1000,320,960,320C920,320,880,320,840,320C800,320,760,320,720,320C680,320,640,320,600,320C560,320,520,320,480,320C440,320,400,320,360,320C320,320,280,320,240,320C200,320,160,320,120,320C80,320,40,320,20,320L0,320Z"></path></svg>