<svg id="visual" viewBox="0 0 450 900" width="450" height="900" xmlns="http://www.w3.org/2000/svg" xmlns:xlink="http://www.w3.org/1999/xlink" version="1.1"><rect x="0" y="0" width="450" height="900" fill="#ECF0F1"></rect><defs><linearGradient id="grad1_0" x1="0%" y1="0%" x2="100%" y2="100%"><stop offset="30%" stop-color="#ecf0f1" stop-opacity="1"></stop><stop offset="70%" stop-color="#ecf0f1" stop-opacity="1"></stop></linearGradient></defs><defs><linearGradient id="grad2_0" x1="0%" y1="0%" x2="100%" y2="100%"><stop offset="30%" stop-color="#ecf0f1" stop-opacity="1"></stop><stop offset="70%" stop-color="#ecf0f1" stop-opacity="1"></stop></linearGradient></defs><g transform="translate(450, 0)"><path d="M0 292.5C-35.6 285.1 -71.3 277.8 -110.2 266.1C-149.1 254.4 -191.4 238.3 -206.8 206.8C-222.3 175.4 -211 128.5 -220.8 91.5C-230.6 54.4 -261.6 27.2 -292.5 0L0 0Z" fill="#0099ff"></path></g><g transform="translate(0, 900)"><path d="M0 -292.5C40.9 -291.1 81.7 -289.8 111.9 -270.2C142.1 -250.7 161.6 -213 183.1 -183.1C204.6 -153.3 228.1 -131.4 246.7 -102.2C265.2 -73 278.9 -36.5 292.5 0L0 0Z" fill="#0099ff"></path></g></svg>