<?xml version="1.0" standalone="no"?>
<svg xmlns:xlink="http://www.w3.org/1999/xlink" id="wave" style="transform:rotate(180deg); transition: 0.3s" viewBox="0 0 1440 490" version="1.1" xmlns="http://www.w3.org/2000/svg"><defs><linearGradient id="sw-gradient-0" x1="0" x2="0" y1="1" y2="0"><stop stop-color="rgba(67.749, 143.987, 255, 1)" offset="0%"/><stop stop-color="rgba(11, 217.803, 255, 1)" offset="100%"/></linearGradient></defs><path style="transform:translate(0, 0px); opacity:1" fill="url(#sw-gradient-0)" d="M0,0L24,57.2C48,114,96,229,144,245C192,261,240,180,288,138.8C336,98,384,98,432,155.2C480,212,528,327,576,367.5C624,408,672,376,720,375.7C768,376,816,408,864,392C912,376,960,310,1008,277.7C1056,245,1104,245,1152,220.5C1200,196,1248,147,1296,122.5C1344,98,1392,98,1440,155.2C1488,212,1536,327,1584,318.5C1632,310,1680,180,1728,130.7C1776,82,1824,114,1872,130.7C1920,147,1968,147,2016,130.7C2064,114,2112,82,2160,65.3C2208,49,2256,49,2304,65.3C2352,82,2400,114,2448,114.3C2496,114,2544,82,2592,130.7C2640,180,2688,310,2736,326.7C2784,343,2832,245,2880,245C2928,245,2976,343,3024,359.3C3072,376,3120,310,3168,261.3C3216,212,3264,180,3312,138.8C3360,98,3408,49,3432,24.5L3456,0L3456,490L3432,490C3408,490,3360,490,3312,490C3264,490,3216,490,3168,490C3120,490,3072,490,3024,490C2976,490,2928,490,2880,490C2832,490,2784,490,2736,490C2688,490,2640,490,2592,490C2544,490,2496,490,2448,490C2400,490,2352,490,2304,490C2256,490,2208,490,2160,490C2112,490,2064,490,2016,490C1968,490,1920,490,1872,490C1824,490,1776,490,1728,490C1680,490,1632,490,1584,490C1536,490,1488,490,1440,490C1392,490,1344,490,1296,490C1248,490,1200,490,1152,490C1104,490,1056,490,1008,490C960,490,912,490,864,490C816,490,768,490,720,490C672,490,624,490,576,490C528,490,480,490,432,490C384,490,336,490,288,490C240,490,192,490,144,490C96,490,48,490,24,490L0,490Z"/></svg>